<svg width="53" height="12" viewBox="0 0 53 12" fill="none" xmlns="http://www.w3.org/2000/svg">
<path fill-rule="evenodd" clip-rule="evenodd" d="M0 1.84616H1H4V2.76924H1V5.53847H4V6.46154H1V9.23078H4V10.1539H1H0V1.84616ZM4 9.23078H5V6.46154H4V9.23078ZM4 5.53847V2.76924H5V5.53847H4ZM11 4.61539H8V5.53847H11V6.46154H8V7.38462H7V9.23078H8V10.1539H11H12V5.53847H11V4.61539ZM8 9.23078V7.38462H11V9.23078H8ZM37 4.61539H40V5.53847H37V4.61539ZM37 9.23078V10.1539H40H41V5.53847H40V6.46154H37V7.38462H36V9.23078H37ZM37 9.23078H40V7.38462H37V9.23078ZM17 4.61539H14V5.53847H13V9.23078H14V10.1539H17V9.23078H18V8.3077H17V9.23078H14V5.53847H17V6.46154H18V5.53847H17V4.61539ZM43 4.61539H46V5.53847H43V4.61539ZM43 9.23078H42V5.53847H43V9.23078ZM46 9.23078V10.1539H43V9.23078H46ZM46 9.23078V8.3077H47V9.23078H46ZM46 5.53847H47V6.46154H46V5.53847ZM52 4.61539H49V5.53847H48V9.23078H49V10.1539H52V9.23078H53V8.3077H52V9.23078H49V7.38462H52H53V5.53847H52V4.61539ZM52 5.53847V6.46154H49V5.53847H52ZM20 6.46154H21V7.38462H20V10.1539H19V1.84616H20V6.46154ZM22 8.3077H21V7.38462H22V8.3077ZM23 9.23078H22V8.3077H23V9.23078ZM23 9.23078H24V10.1539H23V9.23078ZM22 5.53847H21V6.46154H22V5.53847ZM22 5.53847L23 5.53847V4.61539H22V5.53847ZM26 6.46154H25V5.53847H26V6.46154ZM27 7.38462H26V6.46154H27V7.38462ZM28 8.3077H27V7.38462H28V8.3077ZM28 9.23078V8.3077H29V9.23078H28ZM26 9.23078H28V10.1539H26V9.23078ZM26 9.23078H25V8.3077H26V9.23078ZM28 5.53847H26V4.61539H28V5.53847ZM28 5.53847H29V6.46154H28V5.53847ZM34 5.53847H31V9.23078H34V10.1539H31V12H30V4.61539H31H34V5.53847ZM34 5.53847V9.23078H35V5.53847H34Z" fill="#FF0000"/>
</svg>
